<svg width="38" height="34" viewBox="0 0 38 34" fill="none" xmlns="http://www.w3.org/2000/svg">
<path fill-rule="evenodd" clip-rule="evenodd" d="M16.475 0.00359429C16.5743 0.0201355 17.0374 1.42614 17.5171 3.0968C17.9968 4.76745 18.8735 7.66216 20.5607 12.9223L20.0148 13.3192C19.7005 13.5508 18.9893 14.2125 17.4179 15.8997L16.0449 13.6666C15.3006 12.4426 14.06 10.3915 13.2991 9.11778C12.5382 7.84411 11.8435 6.68623 11.7608 6.5539C11.6615 6.42157 11.463 6.07421 11.2976 5.77647C11.0164 5.26369 11.0164 5.24715 11.5954 4.28776C11.9096 3.75844 12.6871 2.79905 13.3322 2.15395C13.9773 1.50884 14.9036 0.747948 15.3998 0.466748C15.8961 0.169007 16.3758 -0.0294881 16.475 0.00359429ZM8.41946 2.58402C8.5187 2.58402 8.81645 2.98101 9.04802 3.44416C9.29614 3.92385 9.97433 5.18098 10.5698 6.22308C11.1653 7.26517 12.3563 9.28319 13.2164 10.6892C13.7641 11.5845 14.5197 12.8084 15.2014 13.9125L15.2025 13.9143C15.5909 14.5435 15.9553 15.1337 16.2434 15.6019C17.054 16.9087 17.7487 17.9673 17.7983 17.9673C17.8479 17.9673 17.8314 17.653 17.7818 17.256C17.6991 16.5779 17.7156 16.5448 18.6584 15.6515C19.1878 15.1553 20.0314 14.5267 20.5276 14.2786C21.0238 14.0305 21.8178 13.7824 22.2644 13.7328C22.7937 13.6666 23.4058 13.7162 24.0012 13.8816C24.4975 14.014 25.2418 14.3779 25.6388 14.6922C26.0689 15.0064 26.6147 15.6681 26.9621 16.2801C27.508 17.2395 27.6403 17.3718 28.5501 17.7357C29.0959 17.9508 29.6583 18.2485 29.7907 18.3808C29.9726 18.5793 29.9891 18.7117 29.8568 18.9267C29.7576 19.0756 29.2448 19.3733 28.6989 19.5553C27.7395 19.9026 27.723 19.9192 27.6238 20.6304C27.5576 21.0274 27.3922 21.8049 27.2268 22.3507C27.0779 22.8966 26.6147 23.9718 26.2178 24.7492C25.8208 25.5266 25.126 26.6349 24.6794 27.2304C24.2494 27.8258 23.29 28.8679 22.5622 29.5461C21.8343 30.2243 20.6434 31.1341 19.9321 31.5642C19.2208 32.0108 17.9141 32.6062 17.054 32.9205C16.1938 33.2348 14.7051 33.6153 13.7457 33.7641C12.3728 33.9957 11.4961 34.0453 9.61042 33.9626C8.25405 33.8965 6.53376 33.7145 5.64054 33.5326C4.7804 33.3506 3.29169 32.9702 2.33231 32.689C1.37292 32.3912 0.463153 32.0438 0.297742 31.895C0.13233 31.7461 0 31.4318 0 31.2003C0 30.9687 0.0992476 30.704 0.215036 30.5882C0.330824 30.489 1.73682 29.7446 3.32478 28.9341C4.33462 28.4187 5.59868 27.736 6.6745 27.1243C6.64702 27.2524 6.74367 27.511 6.89769 27.7267C7.07964 27.9582 7.39392 28.1567 7.59242 28.1733C7.77437 28.2063 7.93978 28.1567 7.93978 28.0575C7.93978 27.9582 7.79091 27.8259 7.60896 27.7267C7.42701 27.6274 7.24505 27.4124 7.19543 27.2304C7.15825 27.0941 7.09321 26.9763 7.02119 26.9259C7.49746 26.6513 7.92303 26.3976 8.25404 26.1883C9.3623 25.4935 10.3217 24.8154 10.3713 24.6996C10.4375 24.5838 10.2886 24.3687 10.0074 24.1702C9.74275 23.9883 9.09765 23.4424 8.55179 22.9297C8.02247 22.4334 7.27812 21.5733 6.91421 21.0274C6.53376 20.4816 6.00445 19.5056 5.70671 18.8771C5.40896 18.2485 4.96235 17.0079 4.73078 16.1478C4.41649 15.0064 4.26762 13.9974 4.20146 12.5087C4.13529 10.9539 4.16838 10.1103 4.38341 9.11778C4.53228 8.34035 4.94581 7.16592 5.39242 6.25616C5.92174 5.16444 6.43452 4.43663 7.17887 3.65919C7.74127 3.06371 8.30367 2.58402 8.41946 2.58402ZM30.6177 9.3659C30.6839 9.3659 30.717 9.61402 30.6673 9.89522C30.6343 10.193 30.3531 11.3178 30.0719 12.3929C29.7576 13.5674 29.4598 14.3283 29.344 14.3283C29.2283 14.3283 29.129 14.229 29.129 14.1132C29.129 14.014 29.344 13.1373 29.6252 12.1779L29.7632 11.7068L29.7632 11.7067C29.9983 10.9034 30.2204 10.1444 30.3034 9.89522C30.4027 9.61402 30.535 9.3659 30.6177 9.3659ZM36.5395 10.7057C36.6387 10.6892 36.7379 10.7554 36.7379 10.8546C36.7379 10.9539 36.1921 11.4997 35.547 12.0787C34.8853 12.6741 33.8598 13.5343 33.2643 14.014C32.6688 14.4771 32.0237 14.9734 31.8252 15.0891C31.6102 15.2215 31.3621 15.3042 31.2463 15.2876C31.147 15.2546 32.2388 14.2125 33.6944 12.9719C35.1335 11.7313 36.4237 10.7057 36.5395 10.7057ZM34.6538 17.7027C36.1259 17.7854 37.4327 17.8846 37.565 17.9342C37.747 18.0004 37.6973 18.0666 37.3996 18.1327C37.168 18.1989 35.8447 18.2154 34.4718 18.1823C32.2387 18.1327 31.941 18.0996 31.9741 17.8681C31.9906 17.6199 32.2553 17.6034 34.6538 17.7027ZM33.7275 21.0771C34.538 21.5071 35.365 21.9703 35.5966 22.1191C35.8116 22.268 35.9605 22.45 35.9109 22.5161C35.8613 22.5658 35.5304 22.5327 35.1665 22.4334C34.8026 22.3176 33.9259 21.9041 33.2312 21.5071C32.2222 20.9447 31.9741 20.7297 32.1064 20.5477C32.2222 20.3492 32.5199 20.4485 33.7275 21.0771ZM30.9982 22.268C31.0974 22.2515 31.544 22.8304 31.9741 23.5417C32.4042 24.253 32.9831 25.0966 33.2478 25.4108C33.5951 25.8078 33.6944 26.0394 33.5786 26.1552C33.4628 26.271 33.132 26.0229 32.5696 25.4108C32.1064 24.9146 31.5109 24.071 31.2628 23.5582C30.9982 23.0289 30.7831 22.5327 30.7831 22.4334C30.7831 22.3342 30.8824 22.268 30.9982 22.268ZM14.9036 2.31941C14.8871 2.71639 15.0029 3.03068 15.2179 3.24571C15.3999 3.42766 15.6149 3.57654 15.7141 3.57654C15.7968 3.57654 15.8795 3.44421 15.8795 3.27879C15.8795 3.12992 15.8134 2.93143 15.7307 2.83218C15.648 2.73294 15.5487 2.48482 15.5156 2.25324C15.4991 2.02167 15.3502 1.82317 15.1848 1.79009C14.9863 1.74046 14.9202 1.87279 14.9036 2.31941ZM13.5803 4.71788C13.5638 4.81712 13.7457 5.26373 13.9773 5.72689C14.2089 6.1735 14.457 6.55395 14.5563 6.55395C14.639 6.55395 14.7547 6.48778 14.8044 6.38853C14.854 6.28929 14.7217 5.87576 14.5066 5.42915C14.3081 4.99908 14.0269 4.63517 13.8615 4.60209C13.7127 4.56901 13.5803 4.61863 13.5803 4.71788ZM7.93978 5.06524C7.93978 5.24719 8.12173 5.59456 8.33677 5.84268C8.5518 6.10733 8.78338 6.27275 8.833 6.22312C8.88263 6.1735 8.76684 5.82613 8.60143 5.42915C8.41948 5.0487 8.1879 4.73442 8.10519 4.73442C8.00595 4.73442 7.93978 4.88329 7.93978 5.06524ZM16.1277 6.04117C16.1773 6.40508 16.3096 6.90131 16.4089 7.13289C16.5247 7.36446 16.7231 7.54642 16.8224 7.54642C16.9713 7.54642 17.0043 7.39755 16.9216 7.08326C16.8757 6.85371 16.7449 6.44011 16.6469 6.13061L16.6469 6.13052L16.6239 6.05771C16.5081 5.74343 16.3262 5.44569 16.2269 5.41261C16.0946 5.36298 16.0615 5.56147 16.1277 6.04117ZM9.51119 7.49679C9.42849 7.54642 9.37886 7.74491 9.3954 7.91032C9.41194 8.07573 9.61044 8.40656 9.82547 8.65468C10.0405 8.91933 10.2886 9.0682 10.3713 8.9855C10.4375 8.91933 10.3548 8.52235 10.1563 8.12536C9.97435 7.71183 9.77585 7.381 9.74277 7.381C9.69315 7.381 9.5939 7.43063 9.51119 7.49679ZM6.94731 8.12536C6.94731 8.25769 7.0631 8.58851 7.19543 8.86971C7.32776 9.15091 7.55934 9.36595 7.69166 9.36595C7.82399 9.36595 7.92324 9.31632 7.89016 9.23362C7.87362 9.16745 7.70821 8.83663 7.52625 8.48926C7.3443 8.15844 7.14581 7.87724 7.0631 7.87724C6.99694 7.87724 6.94731 7.99303 6.94731 8.12536ZM14.8375 8.32385C14.7878 8.40656 14.8209 8.67122 14.9036 8.95242C14.9863 9.23362 15.1517 9.5479 15.2675 9.68023C15.3668 9.79602 15.5653 9.84564 15.6645 9.79602C15.8299 9.71331 15.8134 9.53136 15.5818 8.95242C15.4329 8.53889 15.2179 8.20806 15.1187 8.20806C15.0194 8.20806 14.9036 8.25769 14.8375 8.32385ZM17.4403 9.34183L17.4403 9.34188L17.4404 9.34198C17.4821 9.45489 17.5221 9.56293 17.5502 9.64715C17.6329 9.86218 17.7652 10.0607 17.8645 10.1103C17.9472 10.1599 18.063 10.1268 18.1126 10.0276C18.1622 9.92835 18.0961 9.56444 17.9803 9.20053C17.8479 8.73738 17.6825 8.53889 17.484 8.53889C17.2359 8.53889 17.2028 8.62159 17.2855 8.90279C17.3236 9.02655 17.3836 9.18867 17.4403 9.34183ZM5.57439 10.3915C5.52477 10.6065 5.54131 10.9208 5.60748 11.1028C5.69018 11.2847 5.87213 11.5494 6.02101 11.6817C6.16988 11.814 6.33529 11.8967 6.38491 11.8471C6.43454 11.7975 6.40145 11.3674 6.30221 10.8877C6.18642 10.3419 6.03755 10.0276 5.88868 10.0276C5.75635 10.0276 5.62402 10.193 5.57439 10.3915ZM8.60143 10.6065C8.60143 10.7389 8.7503 11.1855 8.93225 11.599C9.16383 12.1283 9.36232 12.3434 9.5939 12.3434C9.77585 12.3434 9.92472 12.2937 9.92472 12.211C9.92472 12.1449 9.70969 11.6983 9.46157 11.2186C9.21345 10.7389 8.91571 10.3584 8.79993 10.3584C8.70068 10.3584 8.60143 10.4742 8.60143 10.6065ZM11.1157 10.5569C11.1653 10.6727 11.3969 11.0862 11.645 11.4667C11.8766 11.8637 12.1412 12.1779 12.2405 12.1779C12.3232 12.1779 12.4059 12.0456 12.4059 11.8802C12.4059 11.7313 12.1909 11.3178 11.9097 10.9704C11.645 10.6396 11.3307 10.3584 11.2149 10.3584C11.1157 10.3584 11.0661 10.4577 11.1157 10.5569ZM10.3383 13.9975C10.5698 14.4441 10.8676 14.8245 10.9999 14.8245C11.1322 14.8245 11.248 14.7253 11.248 14.6095C11.2315 14.5103 11.0661 14.1298 10.8676 13.7824C10.6691 13.4351 10.3713 13.1704 10.2059 13.1704C9.94127 13.1704 9.95781 13.2531 10.3383 13.9975ZM12.9187 13.5674C12.9187 13.617 13.051 13.9644 13.233 14.3283C13.4149 14.6922 13.6796 14.9899 13.8119 14.9899C14.0104 14.9899 13.9773 14.8411 13.663 14.2787C13.448 13.8982 13.1833 13.5509 13.1006 13.5343C13.0179 13.5012 12.9352 13.5178 12.9187 13.5674ZM6.63303 13.8155C6.61649 13.9148 6.79844 14.196 7.01348 14.4441C7.22851 14.7087 7.47663 14.8411 7.55934 14.7749C7.6255 14.7087 7.55933 14.4441 7.41046 14.196C7.26159 13.9479 7.03002 13.7328 6.89769 13.6997C6.74882 13.6667 6.63303 13.7163 6.63303 13.8155ZM20.9577 15.3208C20.5938 15.6185 20.2795 16.0651 20.1637 16.429C20.0645 16.7764 20.0314 17.3057 20.081 17.5869C20.1306 17.8847 20.3787 18.3643 20.6269 18.6455C20.8915 18.9102 21.3547 19.2245 21.669 19.3237C21.9832 19.423 22.5126 19.4561 22.8268 19.3899C23.1411 19.3237 23.5877 19.1418 23.8193 18.9764C24.0509 18.811 24.3652 18.3478 24.5306 17.9508C24.7291 17.4711 24.7952 17.0576 24.7125 16.7268C24.6629 16.4456 24.4644 16.032 24.299 15.7674C24.117 15.5193 23.7531 15.205 23.4885 15.0727C23.2238 14.9403 22.678 14.8245 22.281 14.8245C21.7517 14.8245 21.4374 14.9403 20.9577 15.3208ZM8.22098 16.1313C8.15482 16.2305 8.25406 16.5283 8.43602 16.8095C8.61797 17.0907 8.91571 17.3719 9.09766 17.4711C9.27962 17.5704 9.46157 17.6365 9.51119 17.6365C9.56082 17.6365 9.5939 17.5373 9.5939 17.4215C9.5939 17.3223 9.3127 16.9418 8.96534 16.5944C8.56835 16.1809 8.30369 16.0155 8.22098 16.1313ZM11.5954 16.3463C11.5788 16.4621 11.7608 16.7433 11.9924 16.9749C12.2239 17.2065 12.4555 17.3223 12.5217 17.2561C12.6044 17.1899 12.5217 16.9253 12.3728 16.6771C12.2239 16.429 11.9924 16.214 11.86 16.1809C11.7112 16.1478 11.5954 16.214 11.5954 16.3463ZM14.4074 16.429C14.3908 16.5944 14.4901 16.8756 14.6224 17.0576C14.7547 17.2395 14.9202 17.3223 15.0029 17.2561C15.069 17.1899 15.0525 16.9253 14.9698 16.6937C14.8705 16.4456 14.7217 16.2305 14.6224 16.1809C14.5066 16.1478 14.4239 16.2636 14.4074 16.429ZM15.1187 20.3989C15.0525 20.4651 15.0029 20.647 15.0194 20.8124C15.0359 20.9779 15.251 21.2591 15.4991 21.441C15.7638 21.6395 16.1111 21.7884 16.3096 21.7718C16.4916 21.7718 16.7066 21.7222 16.7562 21.6395C16.8224 21.5733 16.7728 21.4245 16.657 21.3087C16.5577 21.1929 16.3262 21.0936 16.1607 21.1102C16.0119 21.1102 15.8299 20.9613 15.7472 20.7794C15.6811 20.5974 15.5487 20.4155 15.4329 20.3658C15.3171 20.3327 15.1848 20.3493 15.1187 20.3989ZM18.1291 23.0455C18.0795 23.1282 18.2118 23.3432 18.4103 23.5583C18.6585 23.8229 18.9231 23.9222 19.2539 23.8891C19.5186 23.856 19.7667 23.7402 19.7998 23.6244C19.8329 23.5087 19.7006 23.4259 19.469 23.4259C19.2705 23.4259 18.9562 23.3267 18.7743 23.1778C18.5923 23.0455 18.3938 22.9297 18.3276 22.9297C18.2615 22.9297 18.1788 22.9793 18.1291 23.0455ZM14.457 23.6244C14.3908 23.7568 14.5397 24.0214 14.854 24.2861C15.1517 24.5507 15.5487 24.7327 15.7472 24.6996C15.9457 24.6831 16.1277 24.5673 16.1607 24.4515C16.1938 24.3523 16.045 24.2199 15.8299 24.1703C15.6314 24.1207 15.3171 23.9387 15.1352 23.7568C14.9532 23.5748 14.7547 23.4094 14.6886 23.4259C14.6224 23.4259 14.5232 23.5252 14.457 23.6244ZM11.0826 24.9147C11.0826 25.0139 11.1488 25.2289 11.248 25.4109C11.3307 25.5928 11.6119 25.8079 11.86 25.8906C12.1247 25.9733 12.439 25.9898 12.5713 25.9071C12.7036 25.841 12.7698 25.6921 12.6871 25.5928C12.6209 25.4936 12.4721 25.4109 12.3563 25.4109C12.257 25.4274 11.9593 25.2786 11.6946 25.0801C11.4465 24.8981 11.2149 24.7492 11.1653 24.7492C11.1157 24.7492 11.0826 24.8154 11.0826 24.9147ZM20.3457 24.9477C20.3291 25.0635 20.4615 25.2951 20.6269 25.444C20.7923 25.6094 21.1727 25.7417 21.4539 25.7417C21.7517 25.7417 21.9998 25.6755 21.9998 25.5763C21.9998 25.4771 21.6855 25.262 21.2885 25.0801C20.9081 24.8981 20.5442 24.7492 20.4615 24.7492C20.3953 24.7492 20.3457 24.8485 20.3457 24.9477ZM17.054 25.5432C16.9051 25.6259 16.8886 25.7583 17.0043 25.9898C17.087 26.1718 17.3683 26.4199 17.6329 26.5522C17.8976 26.668 18.2449 26.7176 18.3938 26.668C18.5592 26.6184 18.6915 26.5026 18.6915 26.4034C18.6915 26.3041 18.5096 26.2049 18.278 26.1552C18.0464 26.1056 17.7322 25.9237 17.5667 25.7583C17.4013 25.5763 17.1698 25.477 17.054 25.5432ZM10.0901 27.3131C10.0901 27.4454 10.239 27.7101 10.421 27.8921C10.6029 28.074 10.9007 28.2229 11.0826 28.2229C11.2646 28.2229 11.4134 28.1898 11.4134 28.1402C11.4134 28.0906 11.1819 27.8259 10.9172 27.5612C10.6525 27.2966 10.3383 27.065 10.2555 27.065C10.1563 27.065 10.0901 27.1808 10.0901 27.3131ZM13.7292 27.2304C13.7292 27.3297 13.8781 27.5447 14.06 27.7267C14.242 27.9086 14.5397 28.0575 14.7217 28.0575C14.9036 28.0575 15.0525 28.0079 15.0525 27.9251C15.0525 27.859 14.8705 27.7101 14.639 27.5943C14.4074 27.4951 14.2254 27.3297 14.2254 27.2304C14.2254 27.1312 14.1096 27.065 13.9773 27.065C13.845 27.065 13.7292 27.1312 13.7292 27.2304ZM15.9126 28.8018C15.8465 28.9507 15.9292 29.1988 16.1277 29.3808C16.3096 29.5793 16.6239 29.7281 16.8224 29.7116C17.0374 29.7116 17.2359 29.662 17.2855 29.5793C17.3186 29.5131 17.054 29.265 16.6901 29.0169C16.1442 28.6364 15.9953 28.6033 15.9126 28.8018ZM5.62402 29.1657C5.60748 29.4304 5.73981 29.7612 5.90522 29.9101C6.07063 30.0755 6.30221 30.2078 6.40145 30.2078C6.51724 30.2078 6.64957 30.1417 6.69919 30.0424C6.74882 29.9432 6.63303 29.7281 6.45108 29.5462C6.26912 29.3642 6.12025 29.0996 6.12025 28.9672C6.12025 28.8349 6.00447 28.7191 5.87214 28.7191C5.70672 28.7191 5.62402 28.8845 5.62402 29.1657ZM8.93225 29.2484C8.93225 29.3642 8.99841 29.5462 9.06458 29.6454C9.13074 29.7447 9.34578 29.9101 9.54428 30.0259C9.7924 30.1417 9.95781 30.1417 10.0074 30.0424C10.0571 29.9432 9.89164 29.6951 9.62698 29.4635C9.37887 29.2484 9.13075 29.0499 9.04804 29.0499C8.98188 29.0499 8.93225 29.1492 8.93225 29.2484ZM12.4059 29.2981C12.4059 29.4304 12.5548 29.6951 12.7367 29.877C12.9187 30.059 13.2164 30.2078 13.3984 30.2078C13.5803 30.2078 13.7292 30.1417 13.7292 30.0424C13.7292 29.9432 13.5803 29.8439 13.3984 29.7943C13.2164 29.7447 13.0345 29.5627 12.9848 29.3808C12.9352 29.1988 12.7863 29.0499 12.654 29.0499C12.5217 29.0499 12.4059 29.1657 12.4059 29.2981Z" fill="url(#paint0_linear_1_11)"/>
<defs>
<linearGradient id="paint0_linear_1_11" x1="18.8356" y1="0" x2="18.8356" y2="34" gradientUnits="userSpaceOnUse">
<stop offset="0.545085" stop-color="#FFC700"/>
<stop offset="0.82634" stop-color="#FF6B00"/>
</linearGradient>
</defs>
</svg>
