<svg width="26" height="26" viewBox="0 0 26 26" fill="none" xmlns="http://www.w3.org/2000/svg">
<path fill-rule="evenodd" clip-rule="evenodd" d="M0.475952 0.475952C1.11055 -0.15865 2.13945 -0.15865 2.77405 0.475952L13 10.7019L23.226 0.475952C23.8606 -0.15865 24.8894 -0.15865 25.524 0.475952C26.1587 1.11055 26.1587 2.13945 25.524 2.77405L15.2981 13L25.524 23.226C26.1587 23.8606 26.1587 24.8894 25.524 25.524C24.8894 26.1587 23.8606 26.1587 23.226 25.524L13 15.2981L2.77405 25.524C2.13945 26.1587 1.11055 26.1587 0.475952 25.524C-0.15865 24.8894 -0.15865 23.8606 0.475952 23.226L10.7019 13L0.475952 2.77405C-0.15865 2.13945 -0.15865 1.11055 0.475952 0.475952Z" fill="#CFD7E7"/>
</svg>
